<?xml version="1.0" encoding="utf-8"?>
<svg version="1.0" xmlns="http://www.w3.org/2000/svg" width="4096px" height="500px" viewBox="0 0 4096 500" preserveAspectRatio="xMidYMid meet">
  <g fill="#5a5251">
    <path d="M 842.7 468.5 C 842.3 455.9 842 429.2 842 409.3 C 842 377.7 842.2 373 843.5 373 C 844.3 373 845 373.5 845 374 C 845 374.7 868.9 375 914.8 375 C 953.1 375 1013.9 375.3 1049.8 375.7 L 1115 376.3 L 1115 434 L 1115 491.7 L 979.2 491.6 L 843.3 491.5 L 842.7 468.5 Z"/>
    <path d="M 1280.2 433.8 L 1280.5 375.5 L 1346.9 375.2 C 1393.9 375.1 1413.7 374.7 1414.7 373.9 C 1415.8 372.9 1416 376.1 1416.1 392.6 C 1416.3 428.6 1416 467.3 1415.3 479.8 L 1414.7 492 L 1347.4 492 L 1280 492 L 1280.2 433.8 Z"/>
    <path d="M 1620.6 487.6 C 1620.2 485.1 1619.7 458.3 1619.5 428.1 C 1619.1 380 1619.2 373 1620.5 373 C 1621.3 373 1622 373.5 1622 374 C 1622 374.7 1640.9 375 1676.8 375 C 1706.9 375 1737.2 375.3 1744.3 375.7 L 1757 376.3 L 1757 434.2 L 1757 492 L 1689.1 492 L 1621.2 492 L 1620.6 487.6 Z"/>
    <path d="M 1916.5 472.8 C 1915.7 450 1916.2 16.8 1917.1 17.8 C 1918.3 19.2 1949.4 61.4 1966.2 84.5 C 1975.9 97.7 1990.6 117.5 1999 128.5 C 2007.3 139.5 2041.2 184.5 2074.3 228.5 C 2146.9 325.2 2153.7 334 2155.5 334 C 2158.1 334 2157.1 336.9 2152.9 341.5 C 2148.7 346.1 2139.8 357.6 2126.3 376 C 2122.1 381.8 2114.6 391.9 2109.6 398.5 C 2104.7 405.1 2094.5 418.6 2087.2 428.5 C 2079.8 438.4 2071 450.1 2067.7 454.5 C 2064.5 458.9 2056.6 469.1 2050.2 477.3 L 2038.6 492 L 1977.9 492 L 1917.2 492 L 1916.5 472.8 Z"/>
    <path d="M 2722.6 482 C 2721.6 466.9 2721.9 373 2722.9 373 C 2723.4 373 2724 373.5 2724.2 374 C 2724.4 374.7 2767.2 375.1 2853.5 375.1 C 2924.5 375.2 2993.9 375.5 3007.8 375.9 L 3033.1 376.5 L 3033 433.4 C 3033 464.7 3032.8 490.5 3032.6 490.7 C 3032.4 490.9 2962.7 491.2 2877.7 491.3 L 2723.3 491.5 L 2722.6 482 Z"/>
    <path d="M 2722 253.5 C 2722 214.5 2722.3 194 2723 194 C 2723.6 194 2724 194.3 2724 194.8 C 2724 195.2 2788.7 195.4 2867.8 195.2 C 2946.8 195.1 3016.5 195.3 3022.5 195.7 L 3033.5 196.5 L 3033.2 248.5 C 3033.1 277.1 3032.7 302.4 3032.4 304.7 C 3032 307.9 3031.4 309.1 3029.7 309.6 C 3028.5 310 2959.4 310.4 2876.1 310.4 C 2755.9 310.5 2724.6 310.8 2724.2 311.8 C 2722.4 317.3 2722 306.7 2722 253.5 Z"/>
    <path d="M 486 15.5 C 486 15.8 397 231.7 377.5 227.9 C 367.9 226 305.3 225.3 163.3 225.5 C 66.3 225.6 33.15 225.34 32.761 225.529 C 33.361 224.829 31.53 221.642 29.4 218 C 11.542 187.475 4.7 151.9 13.2 114.5 C 15.7 103.6 18.7 96.8 27 83 C 37 66.5 44.6 57.2 56 47.6 C 76.2 30.7 97.3 20.3 118.9 16.6 C 127.3 15.2 147.9 15 307.1 15 C 405.5 15 486 15.2 486 15.5 Z"/>
    <path d="M1786 147.5 c0 -2.8 0.4 -3.5 2 -3.5 1.6 0 2 0.7 2 3.5 0 2.8 -0.4 3.5 -2 3.5 -1.6 0 -2 -0.7 -2 -3.5z"/>
    <path d="M 1415.1 132.3 C 1415 131.3 1400.8 131 1347.5 131 L 1280 131 L 1280 73 L 1280 15 L 1302.3 15.1 C 1314.5 15.1 1344.8 14.9 1369.7 14.6 L 1414.9 14.1 L 1415.4 19.3 C 1416.3 28.1 1416.8 123.2 1416 128.5 C 1415.6 131.3 1415.2 132.9 1415.1 132.3 Z"/>
    <path d="M 1620.7 132.3 C 1620.2 131.6 1619.6 37.2 1619.9 20.9 L 1620 14.2 L 1688.8 14.5 L 1757.5 14.9 L 1757.5 72.9 L 1757.5 131 L 1690.3 131 C 1646.1 131 1623 131.3 1623 132 C 1623 133.2 1621.3 133.3 1620.7 132.3 Z"/>
    <path d="M 2722 73.3 L 2722 13.7 L 2732.7 14.3 C 2738.5 14.7 2808.8 15 2888.8 15 L 3034.3 15 L 3033.7 71.6 C 3033.4 102.7 3032.9 128.4 3032.6 128.7 C 3032.3 129 2963.1 129.4 2878.8 129.7 C 2747.8 130.1 2725.3 130.4 2724.4 131.6 C 2723.8 132.4 2723 133 2722.6 133 C 2722.3 133 2722 106.2 2722 73.3 Z"/>
  </g>
  <g fill="#433b3a">
    <path d="M 637 430.6 L 637 368 L 741 368.1 L 845 368.2 L 844.9 371.8 C 844.9 373.8 845.1 401.7 845.4 433.8 L 845.9 492 L 754.2 492 C 703.8 492 656.8 492.3 649.8 492.7 L 637 493.3 L 637 430.6 Z"/>
    <path d="M 2555.6 253.9 L 2555.9 14.5 L 2640.4 14.2 L 2725 14 L 2725 71.2 C 2725 102.7 2724.7 130.2 2724.3 132.3 L 2723.7 136.1 L 2642.1 135.8 L 2560.5 135.5 L 2560.5 161.5 L 2560.5 187.5 L 2642.1 187.8 L 2723.7 188 L 2724.4 194.2 C 2725.2 202 2725.2 306.3 2724.4 312.2 L 2723.8 316.8 L 2642.1 316.6 L 2560.5 316.5 L 2560.5 342 L 2560.5 367.5 L 2569 368.1 C 2573.7 368.4 2609.4 368.8 2648.5 368.9 C 2687.5 369 2720.4 369.3 2721.7 369.6 C 2724.8 370.4 2724.9 372.4 2725.2 436.3 L 2725.5 492 L 2657.5 492 C 2620.1 492 2581.8 492.3 2572.5 492.7 L 2555.4 493.3 L 2555.6 253.9 Z"/>
    <path d="M 1412.4 478.8 C 1412.7 471.5 1413 445.2 1413 420.3 C 1413 391.7 1413.4 374.9 1414 374.5 C 1414.6 374.2 1415 372.4 1415 370.7 L 1415 367.5 L 1518.5 367.5 L 1622 367.5 L 1622.1 371 C 1622.2 372.9 1622.4 397 1622.5 424.5 C 1622.7 452 1623.1 478.4 1623.5 483.3 L 1624.2 492 L 1517.9 492 L 1411.7 492 L 1412.4 478.8 Z"/>
    <path d="M 2035 491.2 C 2035 490 2039.4 483.9 2050.5 470 C 2055.5 463.7 2063.6 453.1 2068.5 446.5 C 2077.7 434.1 2091 416.3 2106.6 395.5 C 2111.6 388.9 2119.1 378.8 2123.3 373 C 2144.1 344.6 2152.8 334 2155.4 334 C 2156.1 334 2157.3 333.3 2158 332.5 C 2158.7 331.7 2159.5 331 2159.9 331 C 2160.3 331 2162.9 334.5 2165.7 338.8 C 2168.6 343 2173.9 350.6 2177.5 355.5 C 2181.2 360.5 2185.6 366.5 2187.3 368.9 C 2190.3 373.2 2195.2 379.7 2237.5 436.5 C 2247.3 449.7 2257.9 463.7 2261.1 467.5 C 2269.7 478.1 2273 483.8 2273 488.2 L 2273 492 L 2154 492 C 2088.6 492 2035 491.6 2035 491.2 Z"/>
    <path d="M 152.5 284.8 C 135.5 284.4 117.9 283.6 113.5 283 C 87.3 279.4 66.362 268.365 43.602 241.164 C 32.474 227.865 34.167 225.733 31.834 223.033 C 32.234 222.033 62.4 222.5 176.8 222.4 C 324 222.3 368.6 222.9 380 224.9 C 407.9 230 439.3 249.6 458.8 274.3 C 461.3 277.4 462.515 280 462.915 280 C 463.415 280 464.158 281.1 464.058 282.4 L 464.5 284.7 L 393.5 285.4 C 310.3 286.1 196.5 285.9 152.5 284.8 Z"/>
    <path d="M1786 148 c0 -4.2 0.3 -5 1.9 -5 1.6 0 1.9 0.8 1.9 5 0.1 4.3 -0.2 5 -1.9 5 -1.6 0 -1.9 -0.7 -1.9 -5z"/>
    <path d="M 1415 134.3 C 1415 132.5 1414.6 131 1414.2 131 C 1413.8 131 1413.3 107.9 1413.2 79.8 C 1413.1 51.6 1412.7 25.2 1412.4 21.3 L 1411.8 14 L 1517.4 14 L 1623.1 14 L 1622.9 26.2 C 1622.8 33 1622.8 60.5 1622.9 87.4 C 1623 114.2 1622.9 136.4 1622.7 136.6 C 1622.5 136.8 1575.7 137.1 1518.7 137.2 L 1415 137.5 L 1415 134.3 Z"/>
    <path d="M 3658.62 11.72 C 3658.62 12.02 3569.62 227.92 3550.12 224.12 C 3540.52 222.22 3477.92 221.52 3335.92 221.72 C 3238.92 221.82 3205.77 221.56 3205.38 221.749 C 3205.98 221.049 3204.15 217.862 3202.02 214.22 C 3184.16 183.695 3177.32 148.12 3185.82 110.72 C 3188.32 99.82 3191.32 93.02 3199.62 79.22 C 3209.62 62.72 3217.22 53.42 3228.62 43.82 C 3248.82 26.92 3269.92 16.52 3291.52 12.82 C 3299.92 11.42 3320.52 11.22 3479.72 11.22 C 3578.12 11.22 3658.62 11.42 3658.62 11.72 Z" style="fill: rgb(90, 82, 81);"/>
    <path d="M 3325.12 281.02 C 3308.12 280.62 3290.52 279.82 3286.12 279.22 C 3259.92 275.62 3238.98 264.585 3216.22 237.384 C 3205.1 224.085 3206.79 221.953 3204.46 219.253 C 3204.86 218.253 3235.02 218.72 3349.42 218.62 C 3496.62 218.52 3541.22 219.12 3552.62 221.12 C 3580.52 226.22 3611.92 245.82 3631.42 270.52 C 3633.92 273.62 3635.14 276.22 3635.54 276.22 C 3636.04 276.22 3636.78 277.32 3636.68 278.62 L 3637.12 280.92 L 3566.12 281.62 C 3482.92 282.32 3369.12 282.12 3325.12 281.02 Z" style=""/>
    <path d="M 3181.62 488.92 C 3181.62 488.92 3262.82 272.62 3289.12 276.22 C 3303.62 278.12 3361.32 278.82 3499.72 278.62 L 3636.32 278.52 L 3642.92 291.62 C 3650.32 306.32 3653.72 315.92 3656.82 331.22 C 3661.62 355.12 3658.32 383.42 3647.82 407.22 C 3642.72 419.02 3627.02 441.72 3618.52 449.82 C 3602.52 465.02 3574.72 479.92 3553.62 484.62 C 3539.12 487.92 3519.02 488.32 3349.92 488.62 L 3181.62 488.92 Z" style="fill: rgb(40, 36, 33);"/>
  </g>
  <g fill="#282421">
    <path d="M 9 492.7 C 9 492.7 90.2 276.4 116.5 280 C 131 281.9 188.7 282.6 327.1 282.4 L 463.7 282.3 L 470.3 295.4 C 477.7 310.1 481.1 319.7 484.2 335 C 489 358.9 485.7 387.2 475.2 411 C 470.1 422.8 454.4 445.5 445.9 453.6 C 429.9 468.8 402.1 483.7 381 488.4 C 366.5 491.7 346.4 492.1 177.3 492.4 L 9 492.7 Z"/>
    <path d="M 2269.4 489.7 C 2270.1 486.9 2266.5 480.8 2258.1 470.5 C 2254.9 466.7 2244.3 452.7 2234.5 439.5 C 2192.1 382.6 2187.3 376.1 2184.3 371.9 C 2182.6 369.5 2178.3 363.7 2174.9 359 C 2171.5 354.3 2166.1 346.7 2162.9 342 C 2157.4 333.9 2157.2 333.5 2158.8 331.4 C 2159.7 330.2 2171.8 314.2 2185.6 295.9 C 2209.1 264.7 2244.1 218.5 2253.7 206 C 2256 203 2261 196.4 2264.7 191.4 C 2272 181.5 2284.9 164.4 2291.8 155.2 C 2294.2 152.1 2298.9 145.7 2302.3 141.1 C 2305.7 136.5 2311.1 129.3 2314.3 125.1 C 2333.4 99.9 2370.6 50.1 2376 42.5 C 2379.5 37.6 2384.4 31 2386.8 28 C 2389.3 25 2391.7 21.5 2392.3 20.2 C 2392.9 19 2393.6 18 2393.9 18 C 2394.2 18 2394.5 124.6 2394.5 255 L 2394.5 492 L 2331.6 492 L 2268.8 492 L 2269.4 489.7 Z"/>
    <path d="M 2717.8 372.5 C 2717.6 372.2 2685.2 372 2645.9 371.9 C 2606.6 371.8 2570.7 371.5 2566 371.1 L 2557.5 370.5 L 2557.5 342 L 2557.5 313.5 L 2625 313.4 C 2662.1 313.3 2699.6 313.5 2708.3 313.8 L 2724 314.2 L 2724 343.6 L 2724 373 L 2721.2 373 C 2719.6 373 2718.1 372.8 2717.8 372.5 Z"/>
    <path d="M 706.3 371.3 L 637 371 L 637 192.6 L 637 14.3 L 741 14.1 L 845 13.9 L 845 192.4 L 845 371 L 827.3 371 C 817.5 371 801.9 371.2 792.5 371.3 C 783.2 371.5 744.3 371.5 706.3 371.3 Z"/>
    <path d="M 1510.6 371.3 C 1510.5 371.2 1489.7 371 1464.5 370.9 C 1439.2 370.8 1417.7 370.6 1416.8 370.3 C 1415.1 369.9 1415 363.4 1415 252.5 C 1415 149.1 1415.2 135.1 1416.5 134.6 C 1417.6 134.2 1602.4 133.6 1621.2 134 C 1622.8 134 1622.9 141.5 1622.3 251.8 C 1622 316.5 1621.6 369.7 1621.3 370 C 1621.1 370.2 1617.4 370.6 1613.2 370.7 C 1603.9 371.1 1510.9 371.6 1510.6 371.3 Z"/>
    <path d="M 2636.5 191 L 2557.5 190.5 L 2557.5 161.5 L 2557.5 132.5 L 2621.5 132.5 C 2656.7 132.5 2694.2 132.6 2704.8 132.8 L 2724 133.1 L 2724 161.9 L 2724 190.8 L 2721.8 191.4 C 2720.5 191.7 2718.6 191.9 2717.5 191.7 C 2716.4 191.6 2680 191.3 2636.5 191 Z"/>
  </g>
</svg>